<?xml version="1.0" encoding="UTF-8" standalone="no"?>
<svg
   xmlns:dc="http://purl.org/dc/elements/1.1/"
   xmlns:cc="http://creativecommons.org/ns#"
   xmlns:rdf="http://www.w3.org/1999/02/22-rdf-syntax-ns#"
   xmlns:svg="http://www.w3.org/2000/svg"
   xmlns="http://www.w3.org/2000/svg"
   xmlns:sodipodi="http://sodipodi.sourceforge.net/DTD/sodipodi-0.dtd"
   xmlns:inkscape="http://www.inkscape.org/namespaces/inkscape"
   version="1.1"
   id="svg885"
   xml:space="preserve"
   width="351.47095"
   height="142.50388"
   viewBox="0 0 351.47095 142.50388"
   sodipodi:docname="IIT+CNR-RGB-logos.svg"
   inkscape:version="1.0.1 (1.0.1+r73)"><metadata
     id="metadata891"><rdf:RDF><cc:Work
         rdf:about=""><dc:format>image/svg+xml</dc:format><dc:type
           rdf:resource="http://purl.org/dc/dcmitype/StillImage" /><dc:title></dc:title></cc:Work></rdf:RDF></metadata><defs
     id="defs889"><clipPath
       clipPathUnits="userSpaceOnUse"
       id="clipPath901"><path
         d="M 0,338.067 H 1027.205 V 0 H 0 Z"
         id="path899" /></clipPath></defs><sodipodi:namedview
     pagecolor="#afafaf"
     bordercolor="#666666"
     borderopacity="1"
     objecttolerance="10"
     gridtolerance="10"
     guidetolerance="10"
     inkscape:pageopacity="0"
     inkscape:pageshadow="2"
     inkscape:window-width="1224"
     inkscape:window-height="656"
     id="namedview887"
     showgrid="false"
     showguides="true"
     inkscape:guide-bbox="true"
     fit-margin-top="0"
     fit-margin-left="0"
     fit-margin-right="0"
     fit-margin-bottom="0"
     inkscape:zoom="1.3857011"
     inkscape:cx="88.733018"
     inkscape:cy="103.40634"
     inkscape:window-x="56"
     inkscape:window-y="27"
     inkscape:window-maximized="1"
     inkscape:current-layer="g897"
     inkscape:document-rotation="0"><inkscape:grid
       type="xygrid"
       id="grid1185"
       originx="-158.28619"
       originy="-164.00001" /></sodipodi:namedview><g
     id="g893"
     inkscape:groupmode="layer"
     inkscape:label="IIT+CNR-RGB"
     transform="matrix(1.3333333,0,0,-1.3333333,-158.28619,286.756)"><g
       id="g895"><g
         id="g897"
         clip-path="url(#clipPath901)"><g
           id="g933"
           style="opacity:0.8"><g
             id="g909"
             transform="matrix(0.9744243,0,0,0.9744243,321.63654,112.69096)"
             style="stroke:#ffffff;stroke-width:9.23622;stroke-linecap:round;stroke-linejoin:round;stroke-miterlimit:4;stroke-dasharray:none"><path
               d="m 0,0 c -27.749,0 -50.251,22.48 -50.251,50.244 0,27.723 22.478,50.201 50.229,50.201 H 18.654 V 90.031 H 0.394 c -21.983,0 -40.18,-17.833 -40.18,-39.787 C -39.786,28.262 -21.951,10.47 0,10.47 H 41.977 V 0 H 0"
               style="fill:#002f5f;fill-opacity:1;fill-rule:nonzero;stroke:#ffffff;stroke-width:9.23622;stroke-linecap:round;stroke-linejoin:round;stroke-miterlimit:4;stroke-dasharray:none"
               id="path907" /></g><g
             id="g913"
             transform="matrix(0.9744243,0,0,0.9744243,339.81375,169.90126)"
             style="stroke:#ffffff;stroke-width:9.23622;stroke-linecap:round;stroke-linejoin:round;stroke-miterlimit:4;stroke-dasharray:none"><path
               d="m 0,0 h -18.544 c -4.739,0 -8.562,-3.838 -8.562,-8.587 v -32.221 c -4.939,0.79 -7.491,2.213 -10.653,4.2 l -0.11,27.738 c 0,10.613 8.55,19.203 19.191,19.203 L 0,10.333 V 0"
               style="fill:#002f5f;fill-opacity:1;fill-rule:nonzero;stroke:#ffffff;stroke-width:9.23622;stroke-linecap:round;stroke-linejoin:round;stroke-miterlimit:4;stroke-dasharray:none"
               id="path911" /></g><g
             id="g917"
             transform="matrix(0.9744243,0,0,0.9744243,344.0102,195.38577)"
             style="stroke:#ffffff;stroke-width:9.23622;stroke-linecap:round;stroke-linejoin:round;stroke-miterlimit:4;stroke-dasharray:none"><path
               d="M 0,0 C 18.936,0 34.356,-15.176 34.695,-34.046 V -84.867 H 24.4 v 50.944 c 0,13.39 -10.883,23.524 -24.278,23.524 h -23.081 c -13.364,0 -24.409,-10.065 -24.409,-23.458 l 0.095,-24.692 c -6.414,6.294 -10.375,14.266 -10.375,23.942 0,19.134 15.515,34.648 34.664,34.648 L 0,0"
               style="fill:#002f5f;fill-opacity:1;fill-rule:nonzero;stroke:#ffffff;stroke-width:9.23622;stroke-linecap:round;stroke-linejoin:round;stroke-miterlimit:4;stroke-dasharray:none"
               id="path915" /></g></g><g
           id="g905"
           style="opacity:0.8"><g
             id="g857"
             transform="matrix(0.86843189,0,0,0.86843189,141.26335,112.6891)"
             style="stroke:#ffffff;stroke-width:10.3635;stroke-linecap:round;stroke-linejoin:round;stroke-miterlimit:4;stroke-dasharray:none"><path
               d="m 0,0 h -16.195 c -2.534,0 -4.587,2.054 -4.587,4.589 v 75.027 c 0,2.533 2.053,4.588 4.587,4.588 H 0 c 2.534,0 4.588,-2.055 4.588,-4.588 V 4.589 C 4.588,2.054 2.534,0 0,0"
               style="fill:#ff693c;fill-opacity:1;fill-rule:nonzero;stroke:#ffffff;stroke-width:10.3635;stroke-linecap:round;stroke-linejoin:round;stroke-miterlimit:4;stroke-dasharray:none"
               id="path855" /></g><g
             id="g861"
             transform="matrix(0.86843189,0,0,0.86843189,145.24763,190.67281)"
             style="stroke:#ffffff;stroke-width:10.3635;stroke-linecap:round;stroke-linejoin:round;stroke-miterlimit:4;stroke-dasharray:none"><path
               d="m 0,0 h -25.371 v 18.302 c 0,2.534 2.054,4.588 4.589,4.588 H -4.588 C -2.055,22.89 0,20.836 0,18.302 Z"
               style="fill:#ff693c;fill-opacity:1;fill-rule:nonzero;stroke:#ffffff;stroke-width:10.3635;stroke-linecap:round;stroke-linejoin:round;stroke-miterlimit:4;stroke-dasharray:none"
               id="path859" /></g><g
             id="g865"
             transform="matrix(0.86843189,0,0,0.86843189,174.17518,112.6891)"
             style="stroke:#ffffff;stroke-width:10.3635;stroke-linecap:round;stroke-linejoin:round;stroke-miterlimit:4;stroke-dasharray:none"><path
               d="m 0,0 h -16.194 c -2.534,0 -4.588,2.054 -4.588,4.589 v 75.027 c 0,2.533 2.054,4.588 4.588,4.588 H 0 c 2.534,0 4.588,-2.055 4.588,-4.588 V 4.589 C 4.588,2.054 2.534,0 0,0"
               style="fill:#825082;fill-opacity:1;fill-rule:nonzero;stroke:#ffffff;stroke-width:10.3635;stroke-linecap:round;stroke-linejoin:round;stroke-miterlimit:4;stroke-dasharray:none"
               id="path863" /></g><g
             id="g869"
             transform="matrix(0.86843189,0,0,0.86843189,178.15989,190.67281)"
             style="stroke:#ffffff;stroke-width:10.3635;stroke-linecap:round;stroke-linejoin:round;stroke-miterlimit:4;stroke-dasharray:none"><path
               d="m 0,0 h -25.371 v 18.302 c 0,2.534 2.054,4.588 4.589,4.588 H -4.588 C -2.055,22.89 0,20.836 0,18.302 Z"
               style="fill:#825082;fill-opacity:1;fill-rule:nonzero;stroke:#ffffff;stroke-width:10.3635;stroke-linecap:round;stroke-linejoin:round;stroke-miterlimit:4;stroke-dasharray:none"
               id="path867" /></g><g
             id="g873"
             transform="matrix(0.86843189,0,0,0.86843189,206.40086,112.6891)"
             style="stroke:#ffffff;stroke-width:10.3635;stroke-linecap:round;stroke-linejoin:round;stroke-miterlimit:4;stroke-dasharray:none"><path
               d="m 0,0 h -14.614 c -2.97,0 -5.378,2.408 -5.378,5.378 V 107.31 c 0,2.971 2.408,5.378 5.378,5.378 H 0 c 2.97,0 5.378,-2.407 5.378,-5.378 V 5.378 C 5.378,2.408 2.97,0 0,0"
               style="fill:#191e50;fill-opacity:1;fill-rule:nonzero;stroke:#ffffff;stroke-width:10.3635;stroke-linecap:round;stroke-linejoin:round;stroke-miterlimit:4;stroke-dasharray:none"
               id="path871" /></g><g
             id="g877"
             transform="matrix(0.86843189,0,0,0.86843189,215.89465,172.36496)"
             style="stroke:#ffffff;stroke-width:10.3635;stroke-linecap:round;stroke-linejoin:round;stroke-miterlimit:4;stroke-dasharray:none"><path
               d="m 0,0 v 25.37 h 18.302 c 2.534,0 4.588,-2.054 4.588,-4.588 V 4.587 C 22.89,2.054 20.836,0 18.302,0 Z"
               style="fill:#191e50;fill-opacity:1;fill-rule:nonzero;stroke:#ffffff;stroke-width:10.3635;stroke-linecap:round;stroke-linejoin:round;stroke-miterlimit:4;stroke-dasharray:none"
               id="path875" /></g></g><g
           id="g1169"
           transform="matrix(0.9744243,0,0,0.9744243,-16.529469,2.8821078)"
           style="stroke-width:1.02625"><g
             id="g903"
             transform="translate(347.04185,112.691)"
             style="stroke-width:1.02625"><path
               d="m 0,0 c -27.749,0 -50.251,22.48 -50.251,50.244 0,27.723 22.478,50.201 50.229,50.201 H 18.654 V 90.031 H 0.394 c -21.983,0 -40.18,-17.833 -40.18,-39.787 C -39.786,28.262 -21.951,10.47 0,10.47 H 41.977 V 0 H 0"
               style="fill:#002f5f;fill-opacity:1;fill-rule:nonzero;stroke:none;stroke-width:1.02625"
               id="path905" /></g><g
             id="g907"
             transform="translate(365.69615,171.4029)"
             style="stroke-width:1.02625"><path
               d="m 0,0 h -18.544 c -4.739,0 -8.562,-3.838 -8.562,-8.587 v -32.221 c -4.939,0.79 -7.491,2.213 -10.653,4.2 l -0.11,27.738 c 0,10.613 8.55,19.203 19.191,19.203 L 0,10.333 V 0"
               style="fill:#002f5f;fill-opacity:1;fill-rule:nonzero;stroke:none;stroke-width:1.02625"
               id="path909" /></g><g
             id="g911"
             transform="translate(370.00275,197.5563)"
             style="stroke-width:1.02625"><path
               d="M 0,0 C 18.936,0 34.356,-15.176 34.695,-34.046 V -84.867 H 24.4 v 50.944 c 0,13.39 -10.883,23.524 -24.278,23.524 h -23.081 c -13.364,0 -24.409,-10.065 -24.409,-23.458 l 0.095,-24.692 c -6.414,6.294 -10.375,14.266 -10.375,23.942 0,19.134 15.515,34.648 34.664,34.648 L 0,0"
               style="fill:#002f5f;fill-opacity:1;fill-rule:nonzero;stroke:none;stroke-width:1.02625"
               id="path913" /></g></g><g
           id="g1183"
           transform="matrix(0.86843189,0,0,0.86843189,23.615665,14.826292)"
           style="stroke-width:1.1515"><g
             id="g1023"
             transform="translate(135.4714,112.6891)"
             style="stroke-width:1.1515"><path
               d="m 0,0 h -16.195 c -2.534,0 -4.587,2.054 -4.587,4.589 v 75.027 c 0,2.533 2.053,4.588 4.587,4.588 H 0 c 2.534,0 4.588,-2.055 4.588,-4.588 V 4.589 C 4.588,2.054 2.534,0 0,0"
               style="fill:#ff693c;fill-opacity:1;fill-rule:nonzero;stroke:none;stroke-width:1.1515"
               id="path1025" /></g><g
             id="g1027"
             transform="translate(140.0593,202.4874)"
             style="stroke-width:1.1515"><path
               d="m 0,0 h -25.371 v 18.302 c 0,2.534 2.054,4.588 4.589,4.588 H -4.588 C -2.055,22.89 0,20.836 0,18.302 Z"
               style="fill:#ff693c;fill-opacity:1;fill-rule:nonzero;stroke:none;stroke-width:1.1515"
               id="path1029" /></g><g
             id="g1031"
             transform="translate(173.3694,112.6891)"
             style="stroke-width:1.1515"><path
               d="m 0,0 h -16.194 c -2.534,0 -4.588,2.054 -4.588,4.589 v 75.027 c 0,2.533 2.054,4.588 4.588,4.588 H 0 c 2.534,0 4.588,-2.055 4.588,-4.588 V 4.589 C 4.588,2.054 2.534,0 0,0"
               style="fill:#825082;fill-opacity:1;fill-rule:nonzero;stroke:none;stroke-width:1.1515"
               id="path1033" /></g><g
             id="g1035"
             transform="translate(177.9578,202.4874)"
             style="stroke-width:1.1515"><path
               d="m 0,0 h -25.371 v 18.302 c 0,2.534 2.054,4.588 4.589,4.588 H -4.588 C -2.055,22.89 0,20.836 0,18.302 Z"
               style="fill:#825082;fill-opacity:1;fill-rule:nonzero;stroke:none;stroke-width:1.1515"
               id="path1037" /></g><g
             id="g1039"
             transform="translate(210.4773,112.6891)"
             style="stroke-width:1.1515"><path
               d="m 0,0 h -14.614 c -2.97,0 -5.378,2.408 -5.378,5.378 V 107.31 c 0,2.971 2.408,5.378 5.378,5.378 H 0 c 2.97,0 5.378,-2.407 5.378,-5.378 V 5.378 C 5.378,2.408 2.97,0 0,0"
               style="fill:#191e50;fill-opacity:1;fill-rule:nonzero;stroke:none;stroke-width:1.1515"
               id="path1041" /></g><g
             id="g1043"
             transform="translate(221.4094,181.4059)"
             style="stroke-width:1.1515"><path
               d="m 0,0 v 25.37 h 18.302 c 2.534,0 4.588,-2.054 4.588,-4.588 V 4.587 C 22.89,2.054 20.836,0 18.302,0 Z"
               style="fill:#191e50;fill-opacity:1;fill-rule:nonzero;stroke:none;stroke-width:1.1515"
               id="path1045" /></g></g></g></g></g></svg>
