<?xml version="1.0" encoding="UTF-8" standalone="no"?>
<svg
   xmlns:dc="http://purl.org/dc/elements/1.1/"
   xmlns:cc="http://creativecommons.org/ns#"
   xmlns:rdf="http://www.w3.org/1999/02/22-rdf-syntax-ns#"
   xmlns:svg="http://www.w3.org/2000/svg"
   xmlns="http://www.w3.org/2000/svg"
   xmlns:sodipodi="http://sodipodi.sourceforge.net/DTD/sodipodi-0.dtd"
   xmlns:inkscape="http://www.inkscape.org/namespaces/inkscape"
   sodipodi:docname="floor1.svg"
   inkscape:version="1.0 (6e3e5246a0, 2020-05-07)"
   id="svg8"
   version="1.1"
   viewBox="0 0 210 297"
   height="297mm"
   width="210mm">
  <defs
     id="defs2" />
  <sodipodi:namedview
     inkscape:document-rotation="0"
     inkscape:window-maximized="1"
     inkscape:window-y="27"
     inkscape:window-x="56"
     inkscape:window-height="656"
     inkscape:window-width="1024"
     showgrid="true"
     inkscape:current-layer="layer1"
     inkscape:document-units="mm"
     inkscape:cy="366.1243"
     inkscape:cx="488.15001"
     inkscape:zoom="0.49497475"
     inkscape:pageshadow="2"
     inkscape:pageopacity="0.0"
     borderopacity="1.0"
     bordercolor="#666666"
     pagecolor="#ffffff"
     id="base">
    <inkscape:grid
       id="grid815"
       type="xygrid" />
  </sodipodi:namedview>
  <metadata
     id="metadata5">
    <rdf:RDF>
      <cc:Work
         rdf:about="">
        <dc:format>image/svg+xml</dc:format>
        <dc:type
           rdf:resource="http://purl.org/dc/dcmitype/StillImage" />
        <dc:title />
      </cc:Work>
    </rdf:RDF>
  </metadata>
  <g
     id="layer1"
     inkscape:groupmode="layer"
     inkscape:label="Layer 1">
    <path
       inkscape:connector-curvature="0"
       id="path880"
       d="M 23.812502,198.43755 H 50.270835 V 177.27088 H 198.4375 V 66.145875 H 145.52083 V 13.229208 H 13.229169 v 89.958342 h 10.583333 z"
       style="fill:#f4eed7;stroke:none;stroke-width:0.264583px;stroke-linecap:butt;stroke-linejoin:miter;stroke-opacity:1" />
    <path
       transform="scale(0.26458333)"
       d="M 40 40 L 40 400 L 80 400 L 80 760 L 100 760 L 110 760 L 170 760 L 180 760 L 200 760 L 200 680 L 760 680 L 760 240 L 640 240 L 630 240 L 570 240 L 560 240 L 560 40 L 40 40 z M 60 60 L 430 60 L 430 140 L 290 140 L 290 160 L 450 160 L 450 140 L 450 60 L 540 60 L 540 250 L 540 260 L 560 260 L 570 260 L 630 260 L 640 260 L 640 280 L 640 330 L 640 490 L 630 490 L 580 490 L 570 490 L 560 490 L 560 400 L 560 380 L 560 340 L 540 340 L 540 360 L 540 380 L 540 400 L 540 430 L 540 480 L 520 480 L 470 480 L 460 480 L 360 480 L 360 500 L 380 500 L 400 500 L 460 500 L 470 500 L 520 500 L 539.42773 500 L 539.42773 660 L 400 660 L 380 660 L 200 660 L 200 500 L 310 500 L 310 480 L 180 480 L 180 660 L 180 670 L 180 740 L 170 740 L 110 740 L 100 740 L 100 400 L 200 400 L 200 380 L 200 160 L 240 160 L 240 140 L 200 140 L 180 140 L 180 380 L 100 380 L 90 380 L 60 380 L 60 60 z "
       style="fill:#e3dbdb;stroke:#000000;stroke-width:0.999999px;stroke-linecap:butt;stroke-linejoin:miter;stroke-opacity:1"
       id="path817" />
    <rect
       style="fill:#de8787;stroke:none;stroke-width:1.05833;stroke-linecap:square"
       id="rect20"
       width="52.916664"
       height="116.41666"
       x="148.16667"
       y="63.5" />
    <path
       style="fill:none;stroke:#000000;stroke-width:0.264583px;stroke-linecap:butt;stroke-linejoin:miter;stroke-opacity:1"
       d="m 174.625,153.45833 0,-63.499998 L 148.16666,63.5"
       id="path46"
       sodipodi:nodetypes="ccc" />
    <path
       style="fill:none;stroke:#000000;stroke-width:0.264583px;stroke-linecap:butt;stroke-linejoin:miter;stroke-opacity:1"
       d="M 174.625,89.958332 201.08333,63.5"
       id="path48" />
    <path
       style="fill:none;stroke:#000000;stroke-width:0.264583px;stroke-linecap:butt;stroke-linejoin:miter;stroke-opacity:1"
       d="M 201.08333,179.91666 174.625,153.45833 148.16667,179.91667 V 63.5"
       id="path18"
       sodipodi:nodetypes="cccc" />
  </g>
</svg>
