<?xml version="1.0" encoding="UTF-8" standalone="no"?>
<svg
   xmlns:dc="http://purl.org/dc/elements/1.1/"
   xmlns:cc="http://creativecommons.org/ns#"
   xmlns:rdf="http://www.w3.org/1999/02/22-rdf-syntax-ns#"
   xmlns:svg="http://www.w3.org/2000/svg"
   xmlns="http://www.w3.org/2000/svg"
   xmlns:sodipodi="http://sodipodi.sourceforge.net/DTD/sodipodi-0.dtd"
   xmlns:inkscape="http://www.inkscape.org/namespaces/inkscape"
   width="210mm"
   height="297mm"
   viewBox="0 0 210 297"
   version="1.1"
   id="svg8"
   inkscape:version="1.0 (6e3e5246a0, 2020-05-07)"
   sodipodi:docname="floor0.svg">
  <defs
     id="defs2" />
  <sodipodi:namedview
     id="base"
     pagecolor="#ffffff"
     bordercolor="#666666"
     borderopacity="1.0"
     inkscape:pageopacity="0.0"
     inkscape:pageshadow="2"
     inkscape:zoom="0.98994949"
     inkscape:cx="356.58664"
     inkscape:cy="86.827627"
     inkscape:document-units="mm"
     inkscape:current-layer="layer1"
     showgrid="true"
     inkscape:window-width="1024"
     inkscape:window-height="656"
     inkscape:window-x="56"
     inkscape:window-y="27"
     inkscape:window-maximized="1"
     inkscape:document-rotation="0">
    <inkscape:grid
       type="xygrid"
       id="grid815" />
  </sodipodi:namedview>
  <metadata
     id="metadata5">
    <rdf:RDF>
      <cc:Work
         rdf:about="">
        <dc:format>image/svg+xml</dc:format>
        <dc:type
           rdf:resource="http://purl.org/dc/dcmitype/StillImage" />
        <dc:title />
      </cc:Work>
    </rdf:RDF>
  </metadata>
  <g
     inkscape:label="Layer 1"
     inkscape:groupmode="layer"
     id="layer1">
    <rect
       style="opacity:1;fill:#e3f4d7;fill-opacity:1;stroke:none;stroke-width:8;stroke-linecap:square;stroke-linejoin:miter;stroke-miterlimit:4;stroke-dasharray:none;stroke-opacity:1"
       id="rect878"
       width="211.66666"
       height="211.66666"
       x="0"
       y="0" />
    <path
       style="fill:#f4eed7;stroke:none;stroke-width:0.264583px;stroke-linecap:butt;stroke-linejoin:miter;stroke-opacity:1"
       d="M 23.8125,198.4375 H 50.270833 V 177.27083 H 198.4375 V 66.14583 H 145.52083 V 13.229163 H 13.229167 V 103.1875 H 23.8125 Z"
       id="path880"
       inkscape:connector-curvature="0" />
    <path
       style="fill:#e3dbdb;stroke:#000000;stroke-width:0.264583px;stroke-linecap:butt;stroke-linejoin:miter;stroke-opacity:1"
       d="m 10.583334,10.583289 v 95.250001 h 10.583333 v 95.25 h 7.9375 v -5.29167 H 26.458333 V 105.83329 H 63.5 v -5.29167 H 26.458333 23.8125 15.875 V 15.874956 h 127 v 50.270832 2.645833 31.749999 h -10.58333 v 5.29167 h 15.875 V 68.791621 h 2.64583 v -5.291666 h -2.64583 V 10.583289 Z M 166.6875,63.499955 v 5.291666 h 2.64583 v 5.291667 h 5.29167 v -5.291667 h 21.16666 V 129.64579 H 174.625 V 87.312455 h -5.29167 v 42.333335 h -2.64583 v 5.29166 h 5.29166 2.64584 21.16666 v 39.6875 h -47.62499 v -39.6875 h 5.29166 v -5.29166 h -29.10416 v 5.29166 H 142.875 v 39.6875 h -37.04167 v -39.6875 h 5.29167 v -5.29166 H 71.437499 v 5.29166 h 29.104171 v 39.6875 H 52.916666 v -39.6875 h 5.291667 v -5.29166 H 47.625 v 44.97916 2.64584 18.52083 h -2.645834 v 5.29167 h 7.9375 V 179.91662 H 201.08333 V 63.499955 Z M 76.729166,100.54162 v 5.29167 H 119.0625 v -5.29167 z"
       id="path817" />
  </g>
</svg>
